<?xml version="1.0" encoding="UTF-8"?>
<svg width="79.375mm" height="79.488mm" version="1.1" viewBox="0 0 79.375 79.488" xmlns="http://www.w3.org/2000/svg" xmlns:cc="http://creativecommons.org/ns#" xmlns:dc="http://purl.org/dc/elements/1.1/" xmlns:rdf="http://www.w3.org/1999/02/22-rdf-syntax-ns#">
 <path d="m36.657 8.94c-6.5658 0.6466-12.964 3.3783-18.114 8.1981l3.6159 3.862c4.06-3.7998 9.0323-6.0385 14.169-6.7212v6.9205h-7.6414v2.475h1.4733v0.89591h-1.4733v2.2191h1.4733v1.012h-1.4733v2.0726h7.6414v3.3891h-7.8936l-3.2208-6.6713h-13.538c-1.2479 2.6458-2.1337 5.4942-2.5893 8.4826h15.722l3.2524 6.7376h8.2674v3.6031h-8.2942l-2.292 3.9587h-15.481c1.0496 3.2076 2.6083 6.1873 4.5823 8.8412h10.935l1.9845-4.2237h8.5652v18.959c-13.603-1.3668-24.769-10.862-28.574-23.576h-5.483c4.2833 16.681 19.446 29.043 37.446 29.043s33.162-12.362 37.445-29.043h-5.4824c-3.8052 12.714-14.971 22.21-28.574 23.576v-18.959h8.5646l1.9851 4.2237h10.934c1.974-2.6539 3.5326-5.6336 4.5823-8.8412h-15.481l-2.292-3.9587h-8.2936v-3.6031h8.2674l3.2518-6.7376h15.723c-0.45557-2.9883-1.342-5.8368-2.5899-8.4826h-13.538l-3.2202 6.6713h-7.8936v-3.3891h7.6408v-2.0726h-1.4733v-1.012h1.4733v-2.2191h-1.4733v-0.89591h1.4733v-2.475h-7.6408v-6.9205c5.1369 0.68237 10.11 2.9209 14.17 6.7212l3.614-3.862c-5.1505-4.8204-11.55-7.552-18.116-8.1981a3.1672 4.0564 0 0 1-3.0573 3.0153 3.1672 4.0564 0 0 1-3.0597-3.0153zm-15.563 60.035c0.33066-8e-3 0.64698 0.0801 0.94818 0.26561 0.25808 0.15894 0.48889 0.38146 0.69351 0.66737l-0.25102 0.40784c-0.19846-0.31447-0.41707-0.54525-0.65583-0.69229-0.30638-0.18869-0.62574-0.24824-0.95791-0.1787-0.33131 0.0681-0.58577 0.24641-0.76341 0.53487-0.18104 0.29397-0.22488 0.60572-0.1325 0.93482 0.0946 0.32856 0.3031 0.59247 0.62604 0.79136 0.23462 0.14449 0.52877 0.22323 0.88193 0.23705l-0.25406 0.41209c-0.31695-0.0201-0.6147-0.11581-0.89348-0.28749-0.40851-0.25158-0.67275-0.6049-0.79258-1.0594-0.11898-0.45589-0.05819-0.87915 0.18234-1.2697 0.23629-0.38367 0.58069-0.62451 1.0333-0.72268 0.11349-0.0243 0.22529-0.0379 0.33551-0.0407zm36.66 0.0304 2.9345 1.9693-0.37684 0.23219-0.72451-0.48382-1.1196 0.69047 0.1161 0.85944-0.37441 0.23097zm0.50934 0.82601 0.15378 1.1992 0.8485-0.52332zm-2.5662 0.47956 1.4174 2.754-0.37137 0.19146-1.418-2.754zm-30.905 0.39387-0.08145 3.5326-0.39811-0.19267 0.01824-0.871-1.184-0.57194-0.66251 0.5604-0.39629-0.19146zm28.83 0.73301c0.0641 1e-3 0.127 8e-3 0.18782 0.0201 0.24263 0.0476 0.40555 0.16989 0.48989 0.36651 0.10287 0.23982 0.0506 0.49949-0.15742 0.77921 0.49033-0.041 0.81134 0.115 0.96277 0.46801 0.10542 0.24578 0.079 0.49162-0.0784 0.73727-0.15592 0.24501-0.41926 0.44689-0.79015 0.60599l-0.4668 0.20058-1.2211-2.8464 0.4516-0.19389c0.22232-0.0954 0.42937-0.14111 0.62179-0.13736zm-29.251 0.14041-0.92812 0.77495 0.89774 0.43337zm2.6409 0.23826 0.39143 0.1483-0.94818 2.506 0.94393 0.35679-0.1483 0.39142-1.3347-0.50509zm26.519 6e-3c-0.10782-2e-3 -0.22658 0.024-0.35617 0.0796-0.0373 0.016-0.0687 0.0312-0.0942 0.0456l0.36165 0.84242c0.21322-0.095 0.35949-0.20618 0.43884-0.33369 0.0808-0.12814 0.091-0.26141 0.0316-0.39994-0.0518-0.12066-0.14432-0.19444-0.27777-0.22185-0.0335-7e-3 -0.068-0.0113-0.10394-0.0122zm-2.7686 0.47044 1.7584 2.8342-0.39507 0.12217-1.071-1.7335-0.22793 2.258-1.4654-1.7517 0.09 2.0508-0.39508 0.12156-0.14101-3.3326 1.607 1.9219zm-21.392 0.35861 0.39933 0.12278-0.91111 2.9606-0.39994-0.12338zm24.831 0.30026c-0.14298 3e-3 -0.30385 0.0424-0.48261 0.11913l-0.13189 0.0565 0.41756 0.97432 0.0316-0.0134c0.33516-0.14376 0.54079-0.2956 0.61693-0.45525 0.0761-0.15964 0.0898-0.2949 0.0419-0.40662-0.0633-0.14747-0.18207-0.23591-0.35679-0.26501-0.0437-7e-3 -0.0891-0.0106-0.13675-0.01zm-8.1908 0.63029c0.32805 3e-3 0.63639 0.10259 0.92509 0.29722 0.38465 0.25792 0.61589 0.60423 0.6929 1.04 0.0815 0.46128-0.0122 0.8808-0.28142 1.2576-0.26786 0.37489-0.63802 0.60393-1.1105 0.68743-0.46606 0.0824-0.89129-8e-3 -1.2752-0.27108-0.38389-0.26299-0.61586-0.62239-0.69655-1.0789-0.0779-0.44053 0.0214-0.84738 0.29783-1.2205 0.27641-0.37311 0.64745-0.60081 1.1135-0.68318 0.11372-0.0201 0.22494-0.0297 0.33429-0.0286zm-10.929 0.27352c0.11111-5e-3 0.22475-1.4e-4 0.34159 0.0158 0.30031 0.041 0.60164 0.15134 0.90442 0.33004l-0.0644 0.4747c-0.30869-0.20735-0.60228-0.33042-0.88011-0.36833-0.35651-0.0486-0.67252 0.0264-0.94818 0.22428-0.27544 0.19633-0.43619 0.46241-0.48199 0.79805-0.0467 0.34206 0.0389 0.64445 0.25649 0.90807 0.21941 0.26223 0.51708 0.41916 0.89287 0.47044 0.27301 0.0372 0.57402-9e-3 0.9026-0.13919l-0.0656 0.47896c-0.29799 0.10983-0.6092 0.14275-0.9336 0.0985-0.47536-0.0649-0.85959-0.2807-1.153-0.64792-0.2932-0.36882-0.40908-0.7806-0.34706-1.2351 0.0609-0.44646 0.27857-0.80604 0.65279-1.0789 0.28186-0.20446 0.58992-0.31419 0.92326-0.32944zm10.896 0.1635c-0.0842-4e-5 -0.17034 7e-3 -0.25892 0.0231-0.33678 0.0595-0.6052 0.22786-0.80474 0.50509-0.19795 0.27694-0.26781 0.57988-0.2097 0.90867 0.059 0.33358 0.23177 0.59426 0.51846 0.78225 0.28802 0.18612 0.61072 0.24797 0.96824 0.18478 0.3288-0.0581 0.59138-0.22538 0.78772-0.50205 0.19766-0.27854 0.26818-0.57981 0.21091-0.90382-0.0595-0.33677-0.23097-0.59893-0.5142-0.78589-0.21264-0.14141-0.4453-0.212-0.69777-0.21213zm-7.0482 0.10697c0.46183 0.01 0.85662 0.18018 1.1834 0.50995 0.32682 0.32813 0.48495 0.71368 0.47531 1.1561-0.0102 0.46831-0.18386 0.86044-0.5215 1.1773-0.33598 0.31531-0.74387 0.46815-1.2235 0.45768-0.47317-0.0103-0.87229-0.18243-1.1974-0.51542-0.3251-0.33295-0.48238-0.7309-0.47227-1.1943 0.01-0.44725 0.18658-0.82655 0.53061-1.1384 0.34402-0.31188 0.75219-0.46314 1.2254-0.45282zm3.2645 0.017 0.20605 2.6713 1.0059-0.0772 0.0322 0.41695-1.4229 0.10941-0.23827-3.0883zm-3.3077 0.41513c-0.34191-8e-3 -0.63813 0.10468-0.888 0.33794-0.24826 0.23291-0.37565 0.51651-0.38292 0.85032-7e-3 0.33868 0.11146 0.62816 0.35557 0.86857 0.24608 0.23881 0.55055 0.36224 0.91353 0.37015 0.33381 7e-3 0.62375-0.10583 0.87038-0.33855 0.2483-0.23453 0.37635-0.51651 0.38353-0.84546 8e-3 -0.34192-0.10909-0.63167-0.3507-0.87038-0.24119-0.24034-0.54165-0.36475-0.90139-0.37259z" fill="#d11f17"/>
 <path d="m77.637 46.63-0.32825 1.5595-4.799-1.0101 0.2212-1.051 3.9251 0.82617 0.1459-0.69311zm0.63007-5.45-0.33234 3.8737-4.776-3.5509 0.62315-0.82358 3.4147 2.53 0.18065-2.1056zm-4.9476-2.3875-0.0475-1.308 1.7063 1.163q-0.0511-0.34482-0.0546-0.44099-0.0237-0.65013 0.4332-1.1174 0.46081-0.46357 1.1571-0.48886 0.72707-0.0265 1.2395 0.50581 0.51623 0.53209 0.54585 1.3476 0.0282 0.77708-0.45412 1.2838-0.47836 0.51043-1.2708 0.53922-0.57703 0.0209-1.1646-0.24659-0.58737-0.26372-0.87931-0.45341zm3.2286 0.44127q0.32699-0.0119 0.54187-0.24695 0.21886-0.23137 0.2067-0.56605-0.0106-0.29621-0.2494-0.50325-0.23863-0.20705-0.55408-0.19559-0.31929 0.0118-0.53074 0.23499-0.21132 0.22724-0.20013 0.535 0.0118 0.31544 0.24282 0.5343 0.23137 0.21887 0.54296 0.20755zm1.0458-6.5303 0.2496 1.574-4.8437 0.7681-0.1682-1.0607 3.9616-0.62823-0.11092-0.69956zm-2.0656-6.3458-0.94663-0.33892q0.0852-0.61539-6e-3 -0.83208-0.0697-0.16695-0.24803-0.23433-0.17476-0.0688-0.34881 4e-3 -0.34458 0.14387-0.33573 0.87437-4e-3 0.53981-0.066 0.84101-0.0584 0.29971-0.27376 0.57319-0.21388 0.27702-0.5407 0.41347-0.60032 0.25068-1.2476-0.0506-0.64575-0.29769-0.92163-0.95841-0.30259-0.72465 0.0843-1.7163l1.0467 0.33886q-0.27283 0.63536-0.11115 1.0226 0.0756 0.18116 0.30521 0.28137 0.23312 0.0987 0.41073 0.0246 0.36588-0.15277 0.32109-1.0393-0.0241-0.50721 0.0373-0.74978 0.0649-0.24404 0.27798-0.48317 0.21807-0.23705 0.49869-0.35423 0.62164-0.25956 1.1779-0.0162 0.55627 0.24327 0.82919 0.89689 0.32335 0.77439 0.0562 1.5033zm-6.0433-7.2649q0.96334-0.57166 1.9662-0.30735 1.0081 0.26567 1.5268 1.1396 0.57362 0.96665 0.31654 1.9742-0.25376 1.0055-1.2171 1.5772-0.95672 0.56775-1.9603 0.31729-1.0036-0.25045-1.5674-1.2006t-0.30022-1.9391q0.26555-0.98569 1.2355-1.5613zm2.6512 1.39q-0.3142-0.55211-0.89994-0.65662-0.58574-0.10456-1.1982 0.25892-0.57933 0.34378-0.75768 0.91068-0.17836 0.5669 0.13007 1.0866 0.32413 0.54622 0.89663 0.65859 0.57778 0.11374 1.1935-0.25169 0.60581-0.3595 0.77682-0.9086 0.17298-0.5458-0.14124-1.0979zm-2.1018-4.7569 0.6873 0.81524-3.8643 3.2579-0.67986-0.8064 1.0054-3.8838-2.5016 2.1091-0.69971-0.82995 3.8643-3.2579 0.6898 0.81818-0.9853 3.8718zm-5.3573-5.4999 0.63789 0.55118-1.7433 5.1734-0.82722-0.71478 0.33768-1.0208-1.4651-1.266-0.94936 0.49225-0.8243-0.71226zm-0.76182 1.5293-1.4196 0.74216 0.90586 0.78273zm-1.8787-3.2995-0.66446 1.0418q-0.42427-0.85958-0.94356-1.1908-0.51929-0.33119-1.0586-0.17289-0.53927 0.15829-0.92428 0.76197-0.36431 0.57121-0.25592 1.1243 0.11044 0.54984 0.65895 0.89966 0.48034 0.30636 1.3952 0.34655l-0.65824 1.0321q-0.90911-0.22825-1.4089-0.54702-0.86007-0.54854-1.0589-1.5611-0.19679-1.0158 0.3828-1.9246 0.58993-0.92498 1.6079-1.1752 1.0233-0.25139 1.8996 0.30749 0.56472 0.36017 1.0284 1.0577zm-5.2316-3.3854 0.96643 0.49442-2.302 4.4997-0.96642-0.49442zm-4.5253-1.9269 1.5457 0.61348q0.70486 0.27974 0.96505 0.81374 0.26379 0.53541 0.0125 1.1687-0.14342 0.36137-0.48784 0.67611-0.34084 0.31615-0.93337 0.33775l0.53633 2.4783-1.1592-0.4601-0.49512-2.3004-0.11456-0.0454-0.72138 1.8176-1.0126-0.40188zm0.68742 1.242-0.48566 1.2236 0.21825 0.0867q0.79073 0.31383 1.0478-0.33378 0.10503-0.26477-0.0414-0.50098-0.14148-0.23838-0.50642-0.38323zm-4.7837-2.386 2.7515 0.7224-0.25416 0.96805-1.6978-0.44575-0.25904 0.98666 1.6978 0.44576-0.25025 0.95316-1.6978-0.44575-0.26588 1.0127 1.6978 0.44575-0.25417 0.96805-2.7515-0.7224zm-6.4504-0.92878 1.2856 0.14245 0.60754 3.1154 1.2749-2.9068 1.2435 0.13779 0.0861 5.0948-1.033-0.11444-0.0482-3.584-1.4975 3.4127-0.49356-0.0547-0.73736-3.6914-0.81217 3.5196-1.0483-0.11621zm-4.78 0.11268 0.84146-0.0512 2.3665 4.9197-1.0912 0.0665-0.47146-0.9663-1.9327 0.11762-0.33544 1.0154-1.0874 0.0662zm0.5232 1.6265-0.49738 1.5228 1.195-0.0727zm-4.9899-1.054 1.0412-0.23017 1.091 4.9352-1.0299 0.22767-2.9728-2.6938 0.7063 3.1949-1.06 0.23432-1.091-4.9352 1.0449-0.231 2.9716 2.6705zm-7.335 2.1723 0.78603-0.30472 3.7508 3.9668-1.0193 0.39518-0.74304-0.77712-1.8054 0.6999-0.0107 1.0693-1.0157 0.39378zm0.99314 1.3903-0.0107 1.6019 1.1162-0.43274zm-6.2921 1.2215 1.5155-0.83103q0.61093-0.335 1.1818-0.18267 0.569 0.14896 0.88735 0.72951 0.20915 0.38142 0.21229 0.82749 0.0047 0.44085-0.27407 0.81322-0.27874 0.37235-0.53831 0.52347l-0.54615 0.31704 0.94024 1.7146-0.94846 0.52009zm1.3718 0.28389 0.62189 1.1341 0.37128-0.20358q0.23965-0.13142 0.31402-0.3961 0.07775-0.26653-0.05181-0.5028-0.14807-0.27003-0.4219-0.31304-0.27383-0.043-0.62824 0.15133zm-6.1518 3.6845-1.62e-4 1.0055q-0.60808 0.1272-0.78161 0.2854-0.1337 0.12189-0.13707 0.31248-6e-3 0.18774 0.12112 0.32714 0.25156 0.27594 0.93637 0.0215 0.50961-0.17808 0.81407-0.22122 0.30186-0.046 0.63191 0.0647 0.33289 0.10797 0.57148 0.36975 0.43828 0.48077 0.37272 1.1917-0.06271 0.7083-0.59185 1.1907-0.58033 0.52905-1.6444 0.49893l-0.03363-1.0997q0.69014 0.0428 1.0002-0.23987 0.14508-0.13227 0.16209-0.38217 0.01441-0.25275-0.11525-0.39499-0.26712-0.29301-1.0867 0.0479-0.46945 0.19356-0.71852 0.21746-0.25166 0.0211-0.54858-0.0989-0.29666-0.12544-0.50154-0.35017-0.45384-0.49784-0.41221-1.1036 0.04163-0.60572 0.56507-1.0829 0.62016-0.56536 1.3965-0.55944zm-4.8057 8.133q-0.86208-0.7153-0.95003-1.7487-0.08846-1.0388 0.56048-1.8209 0.71776-0.86503 1.7531-0.96136 1.0324-0.0988 1.8944 0.61651 0.85615 0.71038 0.9574 1.7398 0.10125 1.0294-0.60422 1.8796-0.70547 0.85023-1.7255 0.93421-1.0176 0.081-1.8856-0.6392zm0.41857-2.964q-0.41447 0.48143-0.31613 1.0682 0.09834 0.58681 0.6464 1.0416 0.51843 0.43017 1.1123 0.40772 0.59386-0.0225 0.97978-0.48757 0.40558-0.48881 0.31909-1.0658-0.087-0.5824-0.63801-1.0396-0.54213-0.44983-1.1168-0.42642-0.57218 0.0205-0.98665 0.50187zm-2.3432 3.2982 0.21911 0.96682q-0.45359-2e-3 -0.78888 0.18945-0.33861 0.18985-0.52335 0.50545-0.29947 0.51162-0.13247 1.1179 0.16895 0.60293 0.69717 0.91213 0.56144 0.32864 1.1732 0.18271 0.61038-0.15121 0.92152-0.68275 0.16918-0.28903 0.17858-0.64036 0.01129-0.35467-0.29535-0.75275l-0.60478 1.0332-0.85047-0.49782 1.1784-2.0132 0.56477 0.33058q0.4352 0.25475 0.76183 0.84739 0.32331 0.59068 0.27 1.2152-0.05663 0.62254-0.34833 1.1209-0.52894 0.90362-1.5471 1.1418-1.0181 0.23814-1.9815-0.32581-0.91359-0.53477-1.188-1.5518-0.2725-1.0204 0.25449-1.9207 0.67284-1.1495 2.0412-1.1782zm-4.8342 7.1185 1.1-2.6235 0.92301 0.387-0.67875 1.6188 0.94076 0.39446 0.67875-1.6188 0.90881 0.38105-0.67875 1.6188 0.96561 0.40488 0.67875-1.6188 0.92301 0.38701-1.1 2.6235zm-1.6099 5.2958 0.28653-1.0351 2.9791 0.82466q0.41551 0.11503 0.73146-0.0452 0.31595-0.16019 0.41967-0.5349 0.11913-0.43035-0.06742-0.73762-0.19026-0.3083-0.654-0.43667l-2.9271-0.81028 0.2855-1.0314 3.1534 0.87293q0.41551 0.11503 0.80485 0.45446 0.38563 0.33842 0.4988 0.85304 0.1142 0.51092-0.03883 1.0637-0.27728 1.0017-0.96215 1.3114-0.68857 0.30866-1.3044 0.13819zm-0.42879 2.574 0.15941-1.066 3.5406 0.52948q0.68909 0.10303 1.0509 0.54638 0.36185 0.44334 0.26962 1.0601-0.06661 0.44544-0.38225 0.76022-0.31507 0.31097-0.88415 0.42048l-0.47663-0.87309 0.01523 2e-3q0.0049-7e-3 0.1789-0.051 0.17395-0.0441 0.32258-0.12691 0.14538-0.0873 0.1636-0.20907 0.02676-0.17894-0.10577-0.30774-0.13254-0.1288-0.38-0.16581zm-0.34422 8.4804-0.0605-1.0839 5.0465-0.28169 0.0605 1.0839zm0.76068 5.7065-0.17202-1.0874 3.1196-1.7874-3.519-0.73726-0.17262-1.0912 5.2906 1.0962 0.14796 0.93533z"/>
</svg>
